/* XPM */
static char *out[] = {
/* columns rows colors chars-per-pixel */
"11 14 8 1 ",
"  c None",
". c black",
"X c #8F563B",
"o c #53A305",
"O c #CBC200",
"+ c #FFF300",
"@ c #868686",
"# c white",
/* pixels */
"...        ",
"  .        ",
" .         ",
".          ",
"...        ",
"    .....  ",
"   .ooooo. ",
"   .ooooo. ",
"   .ooo.o+.",
"   .##@@#. ",
" ...X@XXX. ",
" .XXXX@@X. ",
"  .XXXXXX.O",
"   .......O"
};
