/* XPM */
static char * fox_xpm[] = {
"16 16 9 1",
" 	c #249FDE",
".	c #1D1D1C",
"+	c #D8CEEB",
"@	c #C4C4C5",
"#	c #FFFFFF",
"$	c #E4DCC7",
"%	c #3D3F4B",
"&	c #9B9C9B",
"*	c #6E6E6E",
"                ",
"                ",
"                ",
"         .   .  ",
"        .+...+. ",
"        .@###@. ",
"        .$$#$$. ",
"       .@@%$%@@.",
"   .....&+@$@+. ",
"  .######&+%+.  ",
" .#$$$$$$@***.  ",
".#@$@@@@@@@@@.  ",
".#&@&***&@$$@.  ",
".#*&%&%.%&**&.  ",
" .%&%&. .&%%&.  ",
"  .%@%@. .@%%@. "};
