/* XPM */
static char *out[] = {
/* columns rows colors chars-per-pixel */
"10 13 7 1 ",
"  c None",
". c black",
"X c #686868",
"o c #DF0000",
"O c #CBC200",
"+ c #FFF300",
"@ c white",
/* pixels */
"      o   ",
"      oo  ",
"   ..ooo  ",
"  .@@@@@. ",
"  .@@@@@. ",
"  .@@@@@. ",
"  .@@@.@+.",
"  .@@XX@. ",
"...@X@@@o ",
".@@@@XX@. ",
" .@@@@@@. ",
"  ....... ",
"    O   O "
};
