/* XPM */
static char *out[] = {
/* columns rows colors chars-per-pixel */
"16 16 5 1 ",
"  c None",
". c #333941",
"X c #4A5462",
"o c #6D758D",
"O c #B3B9D1",
/* pixels */
"  ............  ",
" .OOOOO...OOOO. ",
".OooOOoX.OoOOoX.",
".OOoOOoX.OoOOoX.",
".OoooooX.OooooX.",
".OoXXooX..OooXX.",
".OoXXoooX..XXX..",
".OooooXoX.......",
"..XXXXXX...OOO..",
"..........OoooX.",
"..OOOOO...OoXXX.",
".OoOOooX..OoXXX.",
".OoOOoXX.OooooX.",
".OoooooX.OoOoXX.",
" .XXXXX...XXXX. ",
"  ............  "
};
