/* XPM */
static char *out[] = {
/* columns rows colors chars-per-pixel */
"16 16 5 1 ",
"  c None",
". c #322B28",
"X c #71413B",
"o c #BB7547",
"O c #DBA463",
/* pixels */
"  ............  ",
" .OOOOOOOOOOOO. ",
".OOOo.....ooOOO.",
".OOo.XXXXX.ooOO.",
".Oo.XXX.XXX.ooO.",
".Oo.XX.o.XX.ooO.",
".Oo.XX.o.XX.ooO.",
".Ooo..o.XXX.ooO.",
".Xoooo.XXX.oooX.",
".Xoooo.XX.ooooX.",
".Xooooo..oooooX.",
".Xoooo.XX.ooooX.",
".Xoooo.XX.ooooX.",
".XXoooo..ooooXX.",
" .XXXXXXXXXXXX. ",
"  ............  "
};
