/* XPM */
static char *out[] = {
/* columns rows colors chars-per-pixel */
"16 16 7 1 ",
"  c None",
". c #333941",
"X c #23674E",
"o c #328464",
"O c #A08662",
"+ c #5DAF8D",
"@ c #C7B08B",
/* pixels */
"     ......     ",
"   ..++++++..   ",
"  .++++++++++.  ",
" .+ooo++ooooo+. ",
".+oooo++o+++oo+.",
".+oo+oooo+++oo+.",
".+oooooXX+++oo+.",
".XooXXoXXoooooX.",
".XXoXXooooXooXX.",
" .XXXXXXXXXXXX. ",
"  ............  ",
"    .OOOOOO.    ",
"   ...@@@@O..   ",
"  .O@@.@@OO.@.  ",
"  .OOO.OOOO.O.  ",
"   ..........   "
};
