/* XPM */
static char *out[] = {
/* columns rows colors chars-per-pixel */
"16 16 7 1 ",
"  c None",
". c #322B28",
"X c #24523B",
"o c #1A7A3E",
"O c #14A02E",
"+ c #793A80",
"@ c #BC4A9B",
/* pixels */
"                ",
"          ...   ",
"      .. .OO.   ",
"     .OO.Ooo.   ",
"     .OX.XX.    ",
"      .....     ",
"   .........    ",
"  .@+.@++.@+.   ",
"  .++.+++.++.   ",
"   .........    ",
"    .@+.@+.     ",
"    .++.++.     ",
"     .....      ",
"      .@+.      ",
"      .++.      ",
"       ..       "
};
