/* XPM */
static char *out[] = {
/* columns rows colors chars-per-pixel */
"16 16 8 1 ",
"  c None",
". c #322B28",
"X c #24523B",
"o c #1A7A3E",
"O c #E86A73",
"+ c #14A02E",
"@ c #BC4A9B",
"# c #F5A097",
/* pixels */
"                ",
"                ",
"    ..          ",
"   .++.         ",
"  .+ooo. ...    ",
"   ......ooX.   ",
"      ......    ",
"     .#@@#.     ",
"    .#O##O#.    ",
"   .#OO##OO#.   ",
"   .##OOO@O#.   ",
"   .@O@@OOO@.   ",
"    .@@@OO@.    ",
"     .@@@@.     ",
"      ....      ",
"                "
};
