/* XPM */
static char *out[] = {
/* columns rows colors chars-per-pixel */
"16 16 4 1 ",
"  c None",
". c #322B28",
"X c #1A7A3E",
"o c #14A02E",
/* pixels */
"   ..........   ",
"  .oooooooooo.  ",
" .ooXooXXXXXoo. ",
" .oXXooXXooXXo. ",
".oXoXXXXXooXXXo.",
".oXXXXXXXXXXXXo.",
".oooXXXXXXXXXoo.",
".oooXXXXXXXXXXo.",
".oXXXoXXXXooXXo.",
".oXXXXXXXXooXXo.",
".oXXXXXXXXXXXXo.",
".oXooXXXXXXoooo.",
".oXooXXXXXXoooo.",
".oXXXXXXXXXoooo.",
".oXXXXXXXXXXXXo.",
".oXXXXXXXXXXXXo."
};
