/* XPM */
static char *out[] = {
/* columns rows colors chars-per-pixel */
"16 16 8 1 ",
"  c None",
". c #422433",
"X c #8E5252",
"o c #BA756A",
"O c #F9A31B",
"+ c #FFD541",
"@ c #FFFC40",
"# c #E9B5A3",
/* pixels */
"  ............  ",
" .@@@@@@@@@@@@. ",
".@@@@@++++@+@@@.",
".@+@@@+@+++++@@.",
".@+@@@+++OO+++@.",
".O+++++++OO+++O.",
".OO+++O++++++OO.",
"..OOOOOOOOOOOO..",
"................",
".oXXXXXXXXXXXXo.",
".#o#ooooooooo##.",
".#oooooooXXooo#.",
".#ooXXoooXXoXo#.",
".XooXXooooooooX.",
" .XXXXXXXXXXXX. ",
"  ............  "
};
