/* XPM */
static char *out[] = {
/* columns rows colors chars-per-pixel */
"16 16 5 1 ",
"  c None",
". c #24523B",
"X c #333941",
"o c #328464",
"O c #5DAF8D",
/* pixels */
"                ",
"                ",
"                ",
"                ",
"                ",
"     XXXXXX     ",
"    XOOOOOOX    ",
"   XOooOOooOX   ",
"  XOoooOOoooOX  ",
" XOooooooooooOX ",
" XOoo.ooo...oOX ",
" X.ooooOo...o.X ",
" X.oo..oo...o.X ",
"  X.o..ooooo.X  ",
"   X........X   ",
"    XXXXXXXX    "
};
