/* XPM */
static char *out[] = {
/* columns rows colors chars-per-pixel */
"16 16 6 1 ",
"  c None",
". c #322B28",
"X c #422433",
"o c #8E5252",
"O c #BA756A",
"+ c #E9B5A3",
/* pixels */
"  XXXXXXXXXXXXX ",
" .+++++++XXX+++X",
"X+OO+OOOOoX+OOoX",
"X+OOOOoOOoX+OooX",
"X+OooOOOoXX+ooXX",
"X+OooOOooXXXXXXX",
"XXooooooXX+++++X",
"XXXXXXXXX+OO+OoX",
"XX+++XXX+O+OOOoX",
"X+OoOoX+OOOOoooX",
"X+OOOoX+++OOoooX",
"X+++OoX+++OOOOoX",
"X+++OoX+OOOoOooX",
"X+OOooX+OOOOoooX",
"X+oooXXooooooo. ",
" XXXXXXXXXXXXX  "
};
