/* XPM */
static char *out[] = {
/* columns rows colors chars-per-pixel */
"16 16 8 1 ",
"  c None",
". c #333941",
"X c #4A5462",
"o c #6D758D",
"O c #249FDE",
"+ c #20D6C7",
"@ c #A6FCDB",
"# c white",
/* pixels */
"  ............  ",
" .+@@@@@@@@@@+. ",
".+############+.",
".##############.",
".#####@++@#####.",
".+###@+OO+@###+.",
".O++++....++++O.",
"..OOO.oooo.OOO..",
".X...ooXooo...X.",
".XooooooooXXooX.",
".XoXXXooooXXooX.",
".XoXXXooooooooX.",
".XoXXXoXXooXooX.",
".XoooooXXooooXX.",
" .XXXXXXXXXXXX. ",
"  ............  "
};
