/* XPM */
static char *out[] = {
/* columns rows colors chars-per-pixel */
"16 16 5 1 ",
"  c None",
". c #423934",
"X c #A08662",
"o c #C7B08B",
"O c #E4D2AA",
/* pixels */
"  ............. ",
" .OOOOOOO...OOO.",
".OooOooooX.OooX.",
".OooooXooX.OoXX.",
".OoXXoooX..OXX..",
".OoXXooXX.......",
"..XXXXXX..OOOOO.",
".........OooOoX.",
"..OOO...OoOoooX.",
".OoXoX.OooooXXX.",
".OoooX.OOOooXXX.",
".OOOoX.OOOooooX.",
".OOOoX.OoooXoXX.",
".OooXX.OooooXXX.",
".OXXX..XXXXXXX. ",
" .............  "
};
