/* XPM */
static char *out[] = {
/* columns rows colors chars-per-pixel */
"16 16 5 1 ",
"  c None",
". c #333941",
"X c #285CC4",
"o c #249FDE",
"O c #A6FCDB",
/* pixels */
"                ",
"                ",
"      ....      ",
"     .OOOO.     ",
"      .Oo.      ",
"      .Oo.      ",
"      .Oo.      ",
"     .OooO.     ",
"    .OOoooO.    ",
"    .OooooO.    ",
"    .OooooO.    ",
"    .OooooO.    ",
"    .XooooX.    ",
"    .XoooXX.    ",
"    .XXXXXX.    ",
"     ......     "
};
