/* XPM */
static char *out[] = {
/* columns rows colors chars-per-pixel */
"16 16 5 1 ",
"  c None",
". c #221C1A",
"X c #71413B",
"o c #BB7547",
"O c #F4D29C",
/* pixels */
"                ",
"                ",
"      ........  ",
"  ....OOOOOOOO. ",
" .OOOOo..oooOO. ",
" .OOoo.OO.oooO. ",
" .Oooo.OO.oooO. ",
" .Ooooo..ooooX. ",
" .Xooo.OO.ooXX. ",
" .XXooo..XXXXX. ",
" .XXXX.oX.....  ",
"  .....oX.      ",
"      .oXX.     ",
"       .oX.     ",
"       .oX.     ",
"       .oX.     "
};
