/* XPM */
static char *out[] = {
/* columns rows colors chars-per-pixel */
"16 16 8 1 ",
"  c None",
". c #221C1A",
"X c #B4202A",
"o c #DF3E23",
"O c #F9A31B",
"+ c #A08662",
"@ c #C7B08B",
"# c #E4D2AA",
/* pixels */
"                ",
"                ",
"                ",
"                ",
"                ",
"     ......     ",
"    .OOOOXX.    ",
"   .OoooooXX.   ",
"  .OooOoOOoXX.  ",
"  .OooooOOoXX.  ",
"  .OooXXXXXXX.  ",
"   .OXXXXXXX... ",
"  ..........OoX.",
" .OoX.#@++.XXXX.",
" .XXX.#@@+..@+. ",
"  .#. .++. .@+. "
};
