/* XPM */
static char *out[] = {
/* columns rows colors chars-per-pixel */
"16 16 2 1 ",
"  c #143464",
". c #285CC4",
/* pixels */
"................",
"................",
"...... ..... ...",
"...... ..... ...",
"......  ...  ...",
"......       ...",
"..... ..      ..",
"....  ..  ...   ",
"         .....  ",
"  ....  ....... ",
" ...... ....... ",
" ...... ....... ",
" ......  .....  ",
" ......   ... . ",
"  ....  .       ",
"                "
};
