/* XPM */
static char *out[] = {
/* columns rows colors chars-per-pixel */
"16 16 5 1 ",
"  c None",
". c #333941",
"X c #4A5462",
"o c #6D758D",
"O c #B3B9D1",
/* pixels */
"  ............  ",
" .OOOOOOOOOOOO. ",
".OOOooo..oooOOO.",
".OOooo.OO.oooOO.",
".Ooooo.OO.ooooO.",
".Ooooo.OO.ooooO.",
".Ooooo.OO.ooooO.",
".Ooooo.OO.ooooO.",
".Xooooo..oooooX.",
".XooooooooooooX.",
".Xooooo..oooooX.",
".Xoooo.OO.ooooX.",
".Xoooo.OO.ooooX.",
".XXoooo..ooooXX.",
" .XXXXXXXXXXXX. ",
"  ............  "
};
