/* XPM */
static char *out[] = {
/* columns rows colors chars-per-pixel */
"16 16 5 1 ",
"  c None",
". c #403353",
"X c #E86A73",
"o c #793A80",
"O c #BC4A9B",
/* pixels */
"                ",
"                ",
"                ",
"                ",
"                ",
"                ",
"                ",
"                ",
"                ",
"                ",
"                ",
"   ...     ...  ",
"  .XXo.   .XXo. ",
"..XOOOo...XOOOo.",
"XXOOOOOXXXOOOOOX",
"OOOOOOOOOOOOOOOO"
};
