/* XPM */
static char *out[] = {
/* columns rows colors chars-per-pixel */
"16 16 5 1 ",
"  c None",
". c #322B28",
"X c #71413B",
"o c #BB7547",
"O c #DBA463",
/* pixels */
"    .OOOOOO.    ",
"    .OOoooO.    ",
"    .OooOoO.    ",
"    .XooooX.    ",
"    .XoXooX.    ",
"    .XoooXX.    ",
"   ..XXXXXX.    ",
"  .O........    ",
"  .o.OOOOOO.    ",
"  .X.OOoooO.    ",
"   ..OooOoO.    ",
"    .XooooX.    ",
"    .XooooX.    ",
"    .XoXoXX.    ",
"    .XXXXXX.    ",
"     ......     "
};
