/* XPM */
static char *out[] = {
/* columns rows colors chars-per-pixel */
"16 16 5 1 ",
"  c None",
". c #322B28",
"X c #A08662",
"o c #C7B08B",
"O c #E4D2AA",
/* pixels */
"          ....  ",
"  ....   .OOOO. ",
" .OOOO. .OOoooO.",
".OOoooO..OooooX.",
".OooooX..XoooXX.",
".XoooXX. .XXXX. ",
" .XXXX.   ....  ",
"  ....          ",
"                ",
"                ",
"                ",
"                ",
"                ",
"                ",
"                ",
"                "
};
