/* XPM */
static char *out[] = {
/* columns rows colors chars-per-pixel */
"16 16 5 1 ",
"  c None",
". c #322B28",
"X c #8E5252",
"o c #BA756A",
"O c #E9B5A3",
/* pixels */
" .............. ",
".OOO.OOOOOO.OOO.",
".O.o.OooooX.o.O.",
".Ooo.XXXXXX.ooO.",
".Ooo........ooO.",
".Ooo.OOOOOO.ooO.",
".Ooo.OOoooO.ooO.",
".Ooo.OooooO.ooO.",
".Ooo.OooooX.ooX.",
".Ooo.XoooXX.ooX.",
".Xoo.XXXXXX.ooX.",
".Xoo........ooX.",
".Xoo.OOOOOO.ooX.",
".X.o.OooooX.o.X.",
".XXX.XXXXXX.XXX.",
" .............. "
};
