/* XPM */
static char *out[] = {
/* columns rows colors chars-per-pixel */
"16 16 8 1 ",
"  c None",
". c #322B28",
"X c #24523B",
"o c #1A7A3E",
"O c #71413B",
"+ c #BB7547",
"@ c #14A02E",
"# c #DBA463",
/* pixels */
".@ooooooooooo@@.",
".@@@oooooooooo@.",
".@@@ooooooo@@o@.",
".@ooo@ooooo@@o@.",
".@ooooooXXoooo@.",
".XooXXXoXXoXXoX.",
".XooXXXooooXXoX.",
".XXoXXXooXoooXX.",
" .XXXXXXXXXXXX. ",
"  ............  ",
"    .+OOOO+.    ",
"    .#++++#.    ",
"    .+O+OO+.    ",
"    .+++OO+.    ",
"   .OOOOOOOO.   ",
"   ..........   "
};
