/* XPM */
static char *out[] = {
/* columns rows colors chars-per-pixel */
"16 16 6 1 ",
"  c None",
". c #322B28",
"X c #423934",
"o c #A08662",
"O c #C7B08B",
"+ c #E4D2AA",
/* pixels */
"  XXXXXXXXXXXX  ",
" .++++++++++++. ",
"X+++OXXXXXOO+++X",
"X++OXoooooXOO++X",
"X+OXoooXoooXOO+X",
"X+OXooXOXooXOO+X",
"X+OXooXOXooXOO+X",
"X+OOXXOXoooXOO+X",
"XoOOOOXoooXOOOoX",
"XoOOOOXooXOOOOoX",
"XoOOOOOXXOOOOOoX",
"XoOOOOXooXOOOOoX",
"XoOOOOXooXOOOOoX",
"XooOOOOXXOOOOooX",
" XooooooooooooX ",
"  XXXXXXXXXXXX  "
};
