/* XPM */
static char *out[] = {
/* columns rows colors chars-per-pixel */
"16 16 7 1 ",
"  c None",
". c #322B28",
"X c #24523B",
"o c #1A7A3E",
"O c #14A02E",
"+ c #F9A31B",
"@ c white",
/* pixels */
"                ",
"                ",
"                ",
"                ",
"                ",
"                ",
"                ",
"     ...... .   ",
"    .OOOOOO.@.  ",
"   .@.OOoo.@+@. ",
"  .@+@.O.Xo.@.  ",
" .O.@.o.@.oo.O. ",
" .Oo.o.@+@.XoO. ",
" .XoooX.@.XXoX. ",
"  .XXXXXXXXXX.  ",
"   ..........   "
};
