/* XPM */
static char *out[] = {
/* columns rows colors chars-per-pixel */
"16 16 6 1 ",
"  c None",
". c #322B28",
"X c #422433",
"o c #8E5252",
"O c #BA756A",
"+ c #E9B5A3",
/* pixels */
"  XXXXXXXXXXXX  ",
" .+++++XXX++++. ",
"X+OO++OoX+O++OoX",
"X++O++OoX+O++OoX",
"X+OOOOOoX+OOOOoX",
"X+OooOOoXX+OOooX",
"X+OooOOOoXXoooXX",
"X+OOOOoOoXXXXXXX",
"XXooooooXXX+++XX",
"XXXXXXXXXX+OOOoX",
"XX+++++XXX+OoooX",
"X+O++OOoXX+OoooX",
"X+O++OooX+OOOOoX",
"X+OOOOOoX+O+OooX",
" .oooooXXXoooo. ",
"  XXXXXXXXXXXX  "
};
