/* XPM */
static char *out[] = {
/* columns rows colors chars-per-pixel */
"16 16 10 1 ",
"  c None",
". c #24523B",
"X c #71413B",
"o c #333941",
"O c #23674E",
"+ c #8E5252",
"@ c #BA756A",
"# c #328464",
"$ c #5DAF8D",
"% c #E9B5A3",
/* pixels */
"   o$###$##$o   ",
"  o$########$o  ",
" o$#####$$###$o ",
" o$#OO##$$###$o ",
" o$#OO#######Oo ",
" oO####..##$#Oo ",
" oO####..####.o ",
"  o.O######O.o  ",
"   oooOOOOooo   ",
"    o+oooo+o    ",
"    o@++++@o    ",
"    o%@@@@%o    ",
"    o@X@++@o    ",
"    o@@@++@o    ",
"   o++++++++o   ",
"   oooooooooo   "
};
