/* XPM */
static char *out[] = {
/* columns rows colors chars-per-pixel */
"16 16 5 1 ",
"  c None",
". c black",
"X c #7C512F",
"o c #DD9B49",
"O c #F9BE66",
/* pixels */
" ..             ",
".oX.            ",
".XOX.           ",
" .XOX.          ",
"  .XO.          ",
"   ..O.         ",
"     .O.        ",
"      .O.       ",
"       .O.      ",
"        .O.     ",
"         .O..   ",
"          .OX.  ",
"          .XOX. ",
"           .XOX.",
"            .Xo.",
"             .. "
};
