/* XPM */
static char *out[] = {
/* columns rows colors chars-per-pixel */
"16 16 12 1 ",
"  c None",
". c black",
"X c #7C512F",
"o c #0A0C46",
"O c #33424A",
"+ c #496266",
"@ c #F9BE66",
"# c #1C2E8C",
"$ c #618686",
"% c #369CFB",
"& c #A4C7C7",
"* c #CDEBEB",
/* pixels */
"..    ....      ",
".*.. .##o.      ",
" .**.oo..       ",
" .*$&&..        ",
"  .&$$&&..      ",
"  .&$$++&.      ",
"  ..&+++O.  ..  ",
"  .o&++OO...#o. ",
" .o#o&OOOXo#%%%.",
" .##....X@Xo..#.",
" ..%.  .oX@X.o#.",
"  .%%..o#oX#%#o.",
"  .#%%%#o..%o%. ",
"  ...#%%. .#%#. ",
"     ....  ...  ",
"                "
};
