/* XPM */
static char *out[] = {
/* columns rows colors chars-per-pixel */
"16 16 13 1 ",
"  c None",
". c black",
"X c #7C512F",
"o c #0A0C46",
"O c #33424A",
"+ c #DD9B49",
"@ c #F9BE66",
"# c #2860CB",
"$ c #618686",
"% c #369CFB",
"& c #82A1A1",
"* c #A4C7C7",
"= c #CDEBEB",
/* pixels */
"  ....          ",
" .==$*.         ",
".=...*O...      ",
".=.  ..#o.      ",
".$.   .o%o.     ",
".**.  ..o%o.  ..",
" .O...  .o#X..&.",
"  .#o.   .X@XO&.",
"  .o%o.   .X@XO.",
"  ..o%o.   .X+X.",
"    .o#X.   .X+.",
"     .X@X.   .. ",
"      .X@X.     ",
"      .OX+X.    ",
"     .&&OX+.    ",
"     ......     "
};
