/* XPM */
static char *out[] = {
/* columns rows colors chars-per-pixel */
"16 16 11 1 ",
"  c None",
". c black",
"X c #7C512F",
"o c #496266",
"O c #BD8144",
"+ c #DD9B49",
"@ c #F9BE66",
"# c #618686",
"$ c #A4C7C7",
"% c #CDEBEB",
"& c #F4FEFE",
/* pixels */
".....           ",
".%#$.           ",
".%%&...         ",
"..#&#$...       ",
" .$&&&.$.       ",
" ...#&#&...     ",
"   .$&&&.#...   ",
"   ...#&#$.#.   ",
"    .$%%%$.#..  ",
"    ...##$o+O.  ",
"      ...o@X.   ",
"      .##+XO.   ",
"      ...O..O.  ",
"        ..  .O..",
"             .@.",
"             ..."
};
