/* XPM */
static char *out[] = {
/* columns rows colors chars-per-pixel */
"16 16 8 1 ",
"  c None",
". c black",
"X c #7C512F",
"o c #33424A",
"O c #F9BE66",
"+ c #618686",
"@ c #A4C7C7",
"# c #CDEBEB",
/* pixels */
"    ..          ",
"    .#....      ",
"  ...##@##.     ",
"  .@o.o@.#@.    ",
"...o@oo@..@.    ",
".##.o@+#++@.    ",
" .#oo+##oo+.    ",
" .@@@##@o.++.   ",
" .#..+oo+o...   ",
" .##.+o.o+X.    ",
"  .@@@++.XOX.   ",
"   ....+..XOX.  ",
"       .. .XOX. ",
"           .XOX.",
"            .XO.",
"             .. "
};
