/* XPM */
static char *out[] = {
/* columns rows colors chars-per-pixel */
"16 16 6 1 ",
"  c None",
". c black",
"X c #7C512F",
"o c #C3A36A",
"O c #F9BE66",
"+ c #ECE5C5",
/* pixels */
"...             ",
".+X..           ",
".o+o.           ",
"..X+X..         ",
"  .o+o.         ",
"  ..X+X.        ",
"    .o+X.       ",
"    ..XOX.      ",
"      .XOX..    ",
"       .XOX.    ",
"        .X+X..  ",
"         .o+o.  ",
"         ..X+X..",
"           .o+o.",
"           ..X+.",
"             ..."
};
