/* XPM */
static char *out[] = {
/* columns rows colors chars-per-pixel */
"16 16 9 1 ",
"  c None",
". c black",
"X c #7C512F",
"o c #BD8144",
"O c #DD9B49",
"+ c #F9BE66",
"@ c #FDF18C",
"# c #A4C7C7",
"$ c #CDEBEB",
/* pixels */
"  ...           ",
" .O+O. ..       ",
".O@@@o.$.       ",
".+@@@+#.        ",
".O@@++OX...     ",
" .o++#oO#$$.    ",
".##XOo$OoX.     ",
" ...#OXooo..    ",
"  .$.Xoooo##.   ",
"  .. .XoooX.    ",
"      .#XoOX.   ",
"      .#..X+X.  ",
"       .  .X+X. ",
"           .XOX.",
"            .Xo.",
"             .. "
};
