/* XPM */
static char *out[] = {
/* columns rows colors chars-per-pixel */
"16 16 8 1 ",
"  c None",
". c black",
"X c #7C512F",
"o c #BD8144",
"O c #DD9B49",
"+ c #F9BE66",
"@ c #A4C7C7",
"# c #CDEBEB",
/* pixels */
"..  ..          ",
".@. .@.         ",
" .@. .#.        ",
"  .#. .O.       ",
".. .#..XO.      ",
".@. .OX+XO.     ",
" .#..X+X..#.    ",
"  .OX+XO. .@.   ",
"   .OX..@. ..   ",
"    .O. .@.     ",
"     .#. .O.    ",
"      .@. .+.   ",
"       ..  .+.  ",
"            .O. ",
"             .o.",
"              .."
};
