/* XPM */
static char *out[] = {
/* columns rows colors chars-per-pixel */
"16 16 8 1 ",
"  c None",
". c black",
"X c #33424A",
"o c #496266",
"O c #DD9B49",
"+ c #F9BE66",
"@ c #A4C7C7",
"# c #CDEBEB",
/* pixels */
"                ",
" ..             ",
" .@.            ",
" .@X.           ",
" .@XX.          ",
" .##Xo.         ",
"  .##oo.        ",
"   .##oo.       ",
"    .#@oX.      ",
"     .@@XX.     ",
"      .@XOO.    ",
"      .@..++.   ",
"      ... .++.  ",
"          .O+.  ",
"           ..   ",
"                "
};
