/* XPM */
static char *out[] = {
/* columns rows colors chars-per-pixel */
"16 16 12 1 ",
"  c None",
". c black",
"X c #0A0C46",
"o c #0D1251",
"O c #BD8144",
"+ c #DD9B49",
"@ c #F9BE66",
"# c #1C2E8C",
"$ c #2860CB",
"% c #369CFB",
"& c #A4C7C7",
"* c #CDEBEB",
/* pixels */
"..              ",
".*.             ",
" .*.            ",
"  .&.           ",
"   .X.          ",
"  .X$O.         ",
" .#X%.@.        ",
".##.%..@.       ",
"....$. .@.      ",
"   .o.  .@.     ",
"   ..    .@.    ",
"          .@.   ",
"           .+.  ",
"            .+. ",
"             .O.",
"              .."
};
