/* XPM */
static char *out[] = {
/* columns rows colors chars-per-pixel */
"16 16 8 1 ",
"  c None",
". c black",
"X c #7C512F",
"o c #BD8144",
"O c #DD9B49",
"+ c #C3A36A",
"@ c #F9BE66",
"# c #ECE5C5",
/* pixels */
"..              ",
".o.             ",
".XO.            ",
" .XO.           ",
"  .@.           ",
"  .@X.          ",
"  .@OX.         ",
"  .X@OX.....    ",
"   .XO@@OOX.    ",
"    ....X@X.    ",
"        .X#X..  ",
"         .+#+.  ",
"         ..X#X..",
"           .+#+.",
"           ..X#.",
"             ..."
};
