/* XPM */
static char *out[] = {
/* columns rows colors chars-per-pixel */
"16 16 10 1 ",
"  c None",
". c black",
"X c #7C512F",
"o c #33424A",
"O c #496266",
"+ c #BD8144",
"@ c #DD9B49",
"# c #F9BE66",
"$ c #A4C7C7",
"% c #CDEBEB",
/* pixels */
" ..             ",
" .$.            ",
" .$o.           ",
" .$oo.          ",
"  .%OO.         ",
"   .%OO.        ",
"    .%Oo.       ",
"     .%oo..     ",
"      .$o+X.    ",
"       .+.@X.   ",
"       .X@.#X.  ",
"        .X#X#X. ",
"         .X#X@X.",
"          .X@.+.",
"           .X+. ",
"            ..  "
};
