/* XPM */
static char *out[] = {
/* columns rows colors chars-per-pixel */
"16 16 9 1 ",
"  c None",
". c black",
"X c #7C512F",
"o c #BD8144",
"O c #DD9B49",
"+ c #C3A36A",
"@ c #F9BE66",
"# c #FDF18C",
"$ c #ECE5C5",
/* pixels */
"                ",
"   ...          ",
"  .O@o.         ",
" .O###O.        ",
" .@###@O.       ",
" .o###@@o.      ",
"  .O@@O@O.      ",
"   .O@@oOX.     ",
"    .oOO@+.     ",
"     ..X+$X.    ",
"       ..+$+.   ",
"         .X$X.  ",
"          .+$+. ",
"           .+$. ",
"            ..  ",
"                "
};
