/* XPM */
static char *out[] = {
/* columns rows colors chars-per-pixel */
"16 16 9 1 ",
"  c None",
". c black",
"X c #7C512F",
"o c #33424A",
"O c #C3A36A",
"+ c #82A1A1",
"@ c #A4C7C7",
"# c #ECE5C5",
"$ c #CDEBEB",
/* pixels */
"...             ",
".@o.            ",
".@oo.           ",
" .@oo.          ",
"  .$oo.         ",
"   .$oo.        ",
"    .$oo.       ",
"     .$oo.      ",
"      .@oo.     ",
"       .+oO.    ",
"        .+#X..  ",
"         .O#O.  ",
"         ..X#X..",
"           .O#O.",
"           ..X#.",
"             ..."
};
