/* XPM */
static char *out[] = {
/* columns rows colors chars-per-pixel */
"16 16 7 1 ",
"  c None",
". c black",
"X c #7C512F",
"o c #DD9B49",
"O c #C3A36A",
"+ c #F9BE66",
"@ c #ECE5C5",
/* pixels */
"    .....       ",
"   .XooX.       ",
"  .XoX..        ",
" .XoX.          ",
" .o+.           ",
" .o+.           ",
" .X+X.          ",
"  .o+o......    ",
"  ..Xo++ooX.    ",
"    ....X+X.    ",
"        .X@X..  ",
"         .O@O.  ",
"         ..X@X..",
"           .O@O.",
"           ..X@.",
"             ..."
};
