/* XPM */
static char *out[] = {
/* columns rows colors chars-per-pixel */
"16 16 10 1 ",
"  c None",
". c black",
"X c #7C512F",
"o c #33424A",
"O c #496266",
"+ c #DD9B49",
"@ c #F9BE66",
"# c #618686",
"$ c #A4C7C7",
"% c #CDEBEB",
/* pixels */
"        ..      ",
"      ..+X.     ",
"    ..oo@X.     ",
"   .#OOo@X.     ",
"  .###OO@+.     ",
" .###%$$X+.     ",
" .##%%...@.     ",
".OO$%.  .@X.    ",
".OO$.  .oX@.    ",
".o##. .o#o@X.   ",
".o#.  .#..X@.   ",
" .#.  ..  .@X.  ",
"  ..      .X@X. ",
"           .X+X.",
"            .X+.",
"             ..."
};
