/* XPM */
static char *out[] = {
/* columns rows colors chars-per-pixel */
"16 16 10 1 ",
"  c None",
". c black",
"X c #7C512F",
"o c #33424A",
"O c #496266",
"+ c #DD9B49",
"@ c #F9BE66",
"# c #618686",
"$ c #A4C7C7",
"% c #CDEBEB",
/* pixels */
"                ",
"    .......     ",
"   .o@XoOO.     ",
"  .oo+@oo.      ",
" .OooX@o.       ",
" .OOo#@X.       ",
".OOO$.X+X.      ",
".#OO$..X@X.     ",
".##%.  .X@X.    ",
".##%.   .X@X.   ",
".#%.     .X@X.  ",
" .%.      .X@X. ",
"  ..       .X+X.",
"            .X+.",
"             ...",
"                "
};
