/* XPM */
static char *out[] = {
/* columns rows colors chars-per-pixel */
"16 16 9 1 ",
"  c None",
". c black",
"X c #33424A",
"o c #496266",
"O c #DD9B49",
"+ c #F9BE66",
"@ c #618686",
"# c #A4C7C7",
"$ c #CDEBEB",
/* pixels */
"                ",
"    ..          ",
"   .XX.         ",
"  .X.oo.        ",
" .XXoo@@.       ",
".#Xoo@@@@.      ",
".##o@@@@@o.     ",
" .#$o@@@ooX.    ",
"  .$$@@ooXXO.   ",
"   .$$ooXX..+.  ",
"    .$#XX.  .+. ",
"     .##.    .O.",
"      ..      ..",
"                ",
"                ",
"                "
};
