/* XPM */
static char *out[] = {
/* columns rows colors chars-per-pixel */
"16 16 11 1 ",
"  c None",
". c black",
"X c #7C512F",
"o c #496266",
"O c #DD9B49",
"+ c #F9BE66",
"@ c #618686",
"# c #82A1A1",
"$ c #A4C7C7",
"% c #CDEBEB",
"& c #F4FEFE",
/* pixels */
"...             ",
".$$.            ",
".$@%. .         ",
" .%@&.&.        ",
"  .&#&&...      ",
"   .&#&.&.      ",
"  .&&&#&&. ..   ",
"   ...&@&#..O.  ",
"    .&&&@%%#+X. ",
"    ...#%oo#+OO.",
"       .%o+OX...",
"      ..##O+.   ",
"      .O++X.X.. ",
"       .XO. .OX.",
"        .O. .XO.",
"         ..  ..."
};
