/* XPM */
static char *out[] = {
/* columns rows colors chars-per-pixel */
"16 16 9 1 ",
"  c None",
". c black",
"X c #7C512F",
"o c #BD8144",
"O c #DD9B49",
"+ c #F9BE66",
"@ c #618686",
"# c #A4C7C7",
"$ c #F4FEFE",
/* pixels */
"      ..        ",
"     .@#.       ",
"     .X$#.      ",
"    .XOo$#.     ",
"   .XO++o$#.    ",
" ..XO++OoX@.    ",
".@XO++OoX..     ",
".#$o+OoXX.      ",
" .#$ooXXOX.     ",
"  .#$X..X+X.    ",
"   .#@. .X+X.   ",
"    ..   .X+X.  ",
"          .X+X. ",
"           .XOX.",
"            .Xo.",
"             .. "
};
