/* XPM */
static char *out[] = {
/* columns rows colors chars-per-pixel */
"16 16 9 1 ",
"  c None",
". c black",
"X c #33424A",
"o c #496266",
"O c #BD8144",
"+ c #DD9B49",
"@ c #F9BE66",
"# c #A4C7C7",
"$ c #CDEBEB",
/* pixels */
"..  ..          ",
".#. .#.   ..    ",
" .#. .$...#.    ",
"  .$. .$o$.     ",
".. .$..X$o.     ",
".#. .$X$o$.     ",
" .$..X$o..$.    ",
"  .$X$o$X..#.   ",
"  .o$o.X$X...   ",
"  .$o$..X#.     ",
" .#...$...@.    ",
" ..   .#. .@.   ",
"       ..  .@.  ",
"            .+. ",
"             .O.",
"              .."
};
