/* XPM */
static char *out[] = {
/* columns rows colors chars-per-pixel */
"16 16 10 1 ",
"  c None",
". c black",
"X c #33424A",
"o c #496266",
"O c #BD8144",
"+ c #DD9B49",
"@ c #618686",
"# c #82A1A1",
"$ c #A4C7C7",
"% c #CDEBEB",
/* pixels */
" ..             ",
".@. ..          ",
".#X.X.          ",
".#X.o.          ",
".$Xoo.          ",
".$Xo@o.         ",
".%%o@@o.        ",
" .%%@@@o..      ",
"  .%%$$$oX. ..  ",
"   ....$#XX.O.  ",
"       .#XX++.  ",
"        .++O.   ",
"        .O..+.  ",
"        ..  .+..",
"             .O.",
"             ..."
};
