/* XPM */
static char *out[] = {
/* columns rows colors chars-per-pixel */
"16 16 9 1 ",
"  c None",
". c black",
"X c #7C512F",
"o c #33424A",
"O c #496266",
"+ c #BD8144",
"@ c #F9BE66",
"# c #A4C7C7",
"$ c #CDEBEB",
/* pixels */
"..              ",
".#.             ",
".#o.            ",
".#oo.           ",
" .#oO.          ",
"  .$.O.         ",
"   .$OO.        ",
"    .$.O.       ",
"     .$Oo.      ",
"      .#.o...   ",
"       .#oo+.   ",
"        .#o@.   ",
"         .@+X.  ",
"         ...X+. ",
"            .X+.",
"             ..."
};
