/* XPM */
static char *out[] = {
/* columns rows colors chars-per-pixel */
"16 16 14 1 ",
"  c None",
". c black",
"X c #7C512F",
"o c #0D1251",
"O c #33424A",
"+ c #496266",
"@ c #DD9B49",
"# c #F9BE66",
"$ c #618686",
"% c #48ABF8",
"& c #82A1A1",
"* c #A4C7C7",
"= c #CDEBEB",
"- c #E0F1FE",
/* pixels */
"   ...          ",
"  .=$*..        ",
" .O=..$O...     ",
".==.  ..X@.     ",
".$.    .@#X...  ",
".*.    ..X#X.&. ",
" .$.     .X-o&..",
" .O...    .o%O&.",
"  .X@.     .+O*.",
"  .@#X.    .+.*.",
"  ..X#X.   ...*.",
"    .X-o...   ..",
"    ..o%++.     ",
"    .&&OO..     ",
"     ..&&**.    ",
"      ......    "
};
