/* XPM */
static char *out[] = {
/* columns rows colors chars-per-pixel */
"16 16 13 1 ",
"  c None",
". c black",
"X c #7C512F",
"o c #33424A",
"O c #496266",
"+ c #DD9B49",
"@ c #C3A36A",
"# c #F9BE66",
"$ c #82A1A1",
"% c #A4C7C7",
"& c #ECE5C5",
"* c #CDEBEB",
"= c #F4FEFE",
/* pixels */
" .......        ",
".%***$Oo.       ",
".*==$OOo.       ",
".*=$OOOO.       ",
".*$OOOOO.       ",
".$OOOOOO.       ",
".OOOOOoo.       ",
".ooOOOo#X.      ",
" ......X#X.     ",
"       .@&@.    ",
"        .X&X.   ",
"         .@&@.  ",
"          .X&X. ",
"           .@&X.",
"            .X+.",
"             .. "
};
