/* XPM */
static char *out[] = {
/* columns rows colors chars-per-pixel */
"16 16 7 1 ",
"  c None",
". c black",
"X c #7C512F",
"o c #0D1251",
"O c #F9BE66",
"+ c #2860CB",
"@ c #369CFB",
/* pixels */
" ..             ",
".+o.            ",
".o@o.           ",
" .o@o.          ",
"  .o@o.         ",
"   .oOX.        ",
"    .XOX.       ",
"     .XOX.      ",
"      .XOX.     ",
"       .XOX.    ",
"        .XOo.   ",
"         .o@o.  ",
"          .o@o. ",
"           .o@o.",
"            .o+.",
"             .. "
};
