/* XPM */
static char *out[] = {
/* columns rows colors chars-per-pixel */
"16 16 10 1 ",
"  c None",
". c black",
"X c #7C512F",
"o c #33424A",
"O c #DD9B49",
"+ c #F9BE66",
"@ c #618686",
"# c #82A1A1",
"$ c #A4C7C7",
"% c #CDEBEB",
/* pixels */
"   ...          ",
"  .%@$..        ",
" .o%..@o...     ",
".%%.  ..XO.     ",
".@.    .O+X.    ",
".$.    ..X+X..  ",
" .@.     .X+O...",
" .o...    .O#oo.",
"  .XO.    ..o$. ",
"  .O+X.    .o.$.",
"  ..X+X..  .. ..",
"    .X+O...     ",
"     .O#oo.     ",
"     ..o$.      ",
"      .o.$.     ",
"      .. ..     "
};
