/* XPM */
static char *out[] = {
/* columns rows colors chars-per-pixel */
"16 16 11 1 ",
"  c None",
". c black",
"X c #7C512F",
"o c #33424A",
"O c #496266",
"+ c #DD9B49",
"@ c #F9BE66",
"# c #82A1A1",
"$ c #A4C7C7",
"% c #CDEBEB",
"& c #F4FEFE",
/* pixels */
"...  ...        ",
".%o. .&&.       ",
".o&o..oO&.      ",
" .o&o..oO$.     ",
"  .o$#OooO#.    ",
"....#oo...O#.   ",
".&o.Oo$O. ...   ",
".&Ooo.O$X.      ",
" .&Oo..X@X.     ",
"  .$O. .X@X.    ",
"   .#O. .X@X.   ",
"    .#.  .X@X.  ",
"     ..   .X@X. ",
"           .X+X.",
"            .X+.",
"             ..."
};
