/* XPM */
static char *out[] = {
/* columns rows colors chars-per-pixel */
"16 16 5 1 ",
"  c None",
". c black",
"X c #F9BE66",
"o c #A4C7C7",
"O c #CDEBEB",
/* pixels */
"...             ",
".Oo.            ",
".oO.            ",
" ..X.           ",
"   .X.          ",
"    .X.         ",
"     .X.        ",
"      .X.       ",
"       .X.      ",
"        .X.     ",
"         .X.    ",
"          .X.   ",
"           .X.. ",
"            .Oo.",
"            .oO.",
"             ..."
};
