/* XPM */
static char *out[] = {
/* columns rows colors chars-per-pixel */
"16 16 10 1 ",
"  c None",
". c black",
"X c #7C512F",
"o c #DD9B49",
"O c #F9BE66",
"+ c #618686",
"@ c #82A1A1",
"# c #A4C7C7",
"$ c #CDEBEB",
"% c #F4FEFE",
/* pixels */
"...             ",
".##.            ",
".#+$..          ",
" .$+$%.         ",
"  .$++%.        ",
"  .%++@%...     ",
"   .%@@@$$. ..  ",
"    .%@@+$..o.  ",
"     .$++$$@O.. ",
"     .$$$++@Ooo.",
"     ...$+OoX...",
"       .@@oO.   ",
"      .oOOX.X.. ",
"      ...o. .oX.",
"        .o. .Xo.",
"         ..  ..."
};
