/* XPM */
static char *out[] = {
/* columns rows colors chars-per-pixel */
"16 16 9 1 ",
"  c None",
". c black",
"X c #273B1C",
"o c #7C512F",
"O c #0D1251",
"+ c #DD9B49",
"@ c #F9BE66",
"# c #2860CB",
"$ c #369CFB",
/* pixels */
" ..             ",
".#X.            ",
".X$X.           ",
" .X@@.          ",
"  .+..          ",
"  .+....        ",
"  .o++#O.       ",
"   ...O$O.      ",
"      .O$O...   ",
"       .O$++o.  ",
"        ....+.  ",
"          ..+.  ",
"          .@@X. ",
"           .X$X.",
"            .X#.",
"             .. "
};
