/* XPM */
static char *out[] = {
/* columns rows colors chars-per-pixel */
"16 16 5 1 ",
"  c None",
". c black",
"X c #BD8144",
"o c #DD9B49",
"O c #F9BE66",
/* pixels */
"..              ",
".X.             ",
" .o.            ",
"  .O.           ",
"   .O.          ",
"    .O.         ",
"     .O.        ",
"      .O.       ",
"       .O.      ",
"        .O.     ",
"         .O.    ",
"          .O.   ",
"           .O.  ",
"            .o. ",
"             .X.",
"              .."
};
