/* XPM */
static char *out[] = {
/* columns rows colors chars-per-pixel */
"16 16 9 1 ",
"  c None",
". c black",
"X c #0A0C46",
"o c #BD8144",
"O c #DD9B49",
"+ c #F9BE66",
"@ c #1C2E8C",
"# c #2860CB",
"$ c #369CFB",
/* pixels */
"..              ",
".o.             ",
" .#.            ",
" .X#.           ",
".X@.+.          ",
".#. .+. .....   ",
".$.  .+.X#$$X.  ",
".$.   .+@...$X. ",
".X$...@.+.  .#. ",
" .X$$#X..+. .@. ",
"  .....  .+..XX.",
"          .+....",
"           .+.  ",
"            .O. ",
"             .o.",
"              .."
};
