/* XPM */
static char *out[] = {
/* columns rows colors chars-per-pixel */
"16 16 7 1 ",
"  c None",
". c black",
"X c #7C512F",
"o c #496266",
"O c #DD9B49",
"+ c #F9BE66",
"@ c #CDEBEB",
/* pixels */
" ..             ",
".@o..           ",
".o@@o.          ",
" .@+X.          ",
" .oX+X.         ",
"  ..X+X.        ",
"    .X+X.       ",
"     .X+X.      ",
"      .X+X.     ",
"       .X+X.    ",
"        .X+X..  ",
"         .X+Xo. ",
"          .XO@. ",
"          .o@@o.",
"           ..o@.",
"             .. "
};
