/* XPM */
static char *out[] = {
/* columns rows colors chars-per-pixel */
"16 16 11 1 ",
"  c None",
". c black",
"X c #7C512F",
"o c #33424A",
"O c #DD9B49",
"+ c #C3A36A",
"@ c #F9BE66",
"# c #618686",
"$ c #A4C7C7",
"% c #ECE5C5",
"& c #CDEBEB",
/* pixels */
"   ...          ",
"  .&#$..        ",
" .o&..#o..      ",
".&&.  ..OX..    ",
".#.    .X@X.    ",
".$.     .X%X..  ",
" .#.     .+%+.  ",
" .o..    ..X%X..",
"  .OX..    .+%+.",
"  .X@X.    ..X%.",
"   .X%X..    ...",
"    .+%+.       ",
"    ..X%X..     ",
"      .+%+.     ",
"      ..X%.     ",
"        ...     "
};
