/* XPM */
static char *out[] = {
/* columns rows colors chars-per-pixel */
"16 16 11 1 ",
"  c None",
". c black",
"X c #7C512F",
"o c #33424A",
"O c #496266",
"+ c #BD8144",
"@ c #DD9B49",
"# c #F9BE66",
"$ c #618686",
"% c #A4C7C7",
"& c #F4FEFE",
/* pixels */
"       ..       ",
"      .$%...    ",
"      .o%&$$.   ",
"     .O$O&&$.   ",
"    .O$$$o&&.   ",
"   .O$$$OOo%%.  ",
" ..O$$$OOOoo$.  ",
".$o$$$OOOoo..   ",
".%%O$OOOoo..    ",
" .&&oOOoo@X.    ",
" .$&&ooo.X#X.   ",
" .$$&%o...X#X.  ",
"  ...%$.  .X#X. ",
"     ..    .X@X.",
"            .X+.",
"             .. "
};
