/* XPM */
static char *out[] = {
/* columns rows colors chars-per-pixel */
"16 16 7 1 ",
"  c None",
". c black",
"X c #7C512F",
"o c #BD8144",
"O c #DD9B49",
"+ c #F9BE66",
"@ c #FDF18C",
/* pixels */
"  ....          ",
" .O++o.         ",
".O@@@+o.        ",
".+@@@++X.       ",
".+@@@++OX.      ",
".o+++O+Oo.      ",
" .o+++oOoX.     ",
"  .XOOOooo.     ",
"   .XoooooX.    ",
"    ..Xoooo.    ",
"      ..XoOX.   ",
"        ..X+X.  ",
"          .X+X. ",
"           .XOX.",
"            .Xo.",
"             .. "
};
