/* XPM */
static char *out[] = {
/* columns rows colors chars-per-pixel */
"16 16 12 1 ",
"  c None",
". c black",
"X c #7C512F",
"o c #33424A",
"O c #496266",
"+ c #C3A36A",
"@ c #618686",
"# c #82A1A1",
"$ c #D7C58A",
"% c #A4C7C7",
"& c #ECE5C5",
"* c #CDEBEB",
/* pixels */
"    ......      ",
"   .$X&+X$.     ",
"  .$&++&+&X.    ",
" .$X&X....+.    ",
".X&&X.    ..    ",
".@XX.           ",
".%OO.           ",
".*@O.      ..   ",
".*@@.     .+.   ",
".**@@.   .o&X.. ",
" .**@O...oo+&+. ",
"  .**OOOOo#.X&X.",
"   .***%%#. .+&.",
"    ......  ..X.",
"              ..",
"                "
};
