/* XPM */
static char *out[] = {
/* columns rows colors chars-per-pixel */
"16 16 12 1 ",
"  c None",
". c black",
"X c #7C512F",
"o c #0D1251",
"O c #33424A",
"+ c #DD9B49",
"@ c #F9BE66",
"# c #618686",
"$ c #48ABF8",
"% c #A4C7C7",
"& c #CDEBEB",
"* c #E0F1FE",
/* pixels */
"   ...          ",
"  .&#%..        ",
" .O&..#O..      ",
".&&.  ..+X.     ",
".#.    .X@O.    ",
".%.     .O#O.   ",
" .#.     .O%O.  ",
" .O..     .O%O. ",
"  .+X.     .O*o.",
"  .X@O.     .o$.",
"   .O#O.     .. ",
"    .O%O.       ",
"     .O%O.      ",
"      .O*o.     ",
"       .o$.     ",
"        ..      "
};
