/* XPM */
static char *out[] = {
/* columns rows colors chars-per-pixel */
"16 16 10 1 ",
"  c None",
". c black",
"X c #7C512F",
"o c #33424A",
"O c #496266",
"+ c #F9BE66",
"@ c #618686",
"# c #82A1A1",
"$ c #CDEBEB",
"% c #F4FEFE",
/* pixels */
"  ......        ",
" .%$$##.        ",
".%%%$#o.        ",
".$%$#oo.        ",
".$$#OOO.        ",
".##oOOoO.       ",
".#ooOo@#.       ",
".....O#+X.      ",
"     ..X+X.     ",
"       .X+X.    ",
"        .X+X.   ",
"         .X+X.  ",
"          .X+X. ",
"           .X+X.",
"            .X+.",
"             .. "
};
