/* XPM */
static char *out[] = {
/* columns rows colors chars-per-pixel */
"16 16 9 1 ",
"  c None",
". c black",
"X c #BD8144",
"o c #DD9B49",
"O c #F9BE66",
"+ c #82A1A1",
"@ c #A4C7C7",
"# c #CDEBEB",
"$ c #F4FEFE",
/* pixels */
"..              ",
".#.             ",
" .#.            ",
"  .$.           ",
"   .$.          ",
"    .#.         ",
"     .@.        ",
"      .@.  ...  ",
"       .+. .o.  ",
"        .+.o..  ",
"         .O.    ",
"       ..o.X.   ",
"       .o. .X.  ",
"       ...  .X..",
"             .O.",
"             ..."
};
