/* XPM */
static char *out[] = {
/* columns rows colors chars-per-pixel */
"16 16 7 1 ",
"  c None",
". c black",
"X c #7C512F",
"o c #33424A",
"O c #DD9B49",
"+ c #F9BE66",
"@ c #A4C7C7",
/* pixels */
"...             ",
".@o.            ",
".o@o...         ",
" .o+OOX.        ",
"  .O..O.        ",
"  .O..O.        ",
"  .XOO+X.       ",
"   ...X+X.      ",
"      .X+X...   ",
"       .X+OOX.  ",
"        .O..O.  ",
"        .O..O.  ",
"        .XOO+o. ",
"         ...o@o.",
"            .o@.",
"             ..."
};
