/* XPM */
static char *out[] = {
/* columns rows colors chars-per-pixel */
"16 16 9 1 ",
"  c None",
". c black",
"X c #7C512F",
"o c #33424A",
"O c #BD8144",
"+ c #F9BE66",
"@ c #82A1A1",
"# c #A4C7C7",
"$ c #CDEBEB",
/* pixels */
"..              ",
".#.             ",
".#o.            ",
" .#o.           ",
"  .$o.          ",
"   .$o.         ",
"    .$o....     ",
"     .$o.X.     ",
"      .#oO.     ",
"       .@+....  ",
"        .+oO+.  ",
"        .+.+X.  ",
"        .+OX+.  ",
"        .O..X+. ",
"        ... .XO.",
"             ..."
};
