/* XPM */
static char *out[] = {
/* columns rows colors chars-per-pixel */
"16 16 11 1 ",
"  c None",
". c black",
"X c #33424A",
"o c #496266",
"O c #BD8144",
"+ c #F9BE66",
"@ c #618686",
"# c #82A1A1",
"$ c #A4C7C7",
"% c #CDEBEB",
"& c #F4FEFE",
/* pixels */
"....            ",
".%%%.           ",
".%oo%.          ",
".%o@@&.         ",
" .%@@@&.        ",
"  .%@@@&..      ",
"   .&@##&%..    ",
"    .&#oo#$$....",
"     .&oo%X@#.O.",
"     .%#%%X$X+O.",
"      .$XXX$O+..",
"      .$@$$X+.. ",
"       .#XO+O.  ",
"       ..++..O..",
"       .OO.. .+.",
"       ....  ..."
};
