/* XPM */
static char *out[] = {
/* columns rows colors chars-per-pixel */
"16 16 11 1 ",
"  c None",
". c black",
"X c #7C512F",
"o c #33424A",
"O c #496266",
"+ c #C3A36A",
"@ c #618686",
"# c #A4C7C7",
"$ c #ECE5C5",
"% c #CDEBEB",
"& c #F4FEFE",
/* pixels */
"  ..            ",
" .#.            ",
" .#.            ",
" .#@.           ",
" .%@.           ",
" .%O@.          ",
" .&#O@.         ",
"  .&#O@.        ",
"   .&%oO.       ",
"    ..#oO.      ",
"      .#oX..    ",
"       .O$+.    ",
"        .X$X..  ",
"         .+$+.  ",
"         ..X$.  ",
"           ...  "
};
