/* XPM */
static char *out[] = {
/* columns rows colors chars-per-pixel */
"16 16 10 1 ",
"  c None",
". c black",
"X c #7C512F",
"o c #33424A",
"O c #DD9B49",
"+ c #1C2E8C",
"@ c #618686",
"# c #369CFB",
"$ c #A4C7C7",
"% c #CDEBEB",
/* pixels */
"   ...          ",
"  .%@$..        ",
" .o%..@o..      ",
".%%.  ..OX.     ",
".@.    .X%@.    ",
".$.     .@#+.   ",
" .@.     .+#+.  ",
" .o..     .+#@. ",
"  .OX.     .@%X.",
"  .X%@.     .XO.",
"   .@#+.     .. ",
"    .+#+.       ",
"     .+#@.      ",
"      .@%X.     ",
"       .XO.     ",
"        ..      "
};
