/* XPM */
static char *out[] = {
/* columns rows colors chars-per-pixel */
"16 16 18 1 ",
"  c None",
". c #24221B",
"X c #3D321C",
"o c #463C28",
"O c #524935",
"+ c #574E3D",
"@ c #685633",
"# c #5B5342",
"$ c #655840",
"% c #76654B",
"& c #886D4E",
"* c #B98045",
"= c #CE9048",
"- c #EEA145",
"; c #C1A87A",
": c #CAB183",
"> c #D0BA8F",
", c #E5D3B1",
/* pixels */
"    @@    @@    ",
"   @>:@  @:>@   ",
"   @--@  @--@   ",
"   @=&;++;&=@   ",
"   @*>>,,>>*@   ",
"   @>>>,,>>>@   ",
"    @,.,,.,@    ",
"    @>>,,>>@    ",
"    #>>XX>>#    ",
"   +#>&XX&>#+   ",
"   %:+&,,&+:%   ",
"   %::++++::%   ",
"   O;::::::;O   ",
"   O;;&::&;;O   ",
"   O;;$OO$;;O   ",
"   O;;o  o;;O   "
};
