/* XPM */
static char *out[] = {
/* columns rows colors chars-per-pixel */
"16 16 10 1 ",
"  c None",
". c #26221A",
"X c #705B33",
"o c #615642",
"O c #6C5E46",
"+ c #87632E",
"@ c #B77934",
"# c #8B7154",
"$ c #CEB88B",
"% c #E7D6B4",
/* pixels */
"                ",
"                ",
"                ",
"        Oo      ",
"       O%o      ",
"      O$$o      ",
"    X++OO+XX    ",
"   X@@X%%X@@X   ",
"   X@+%%%%+@X   ",
"   X+X+%%+X+X   ",
"   X+X.%%.X+X   ",
"    Xo%..%oX    ",
"    o$oooo$o    ",
"    o$$%%$$o    ",
"     #$oo$#     ",
"     X@XX@X     "
};
