/* XPM */
static char *out[] = {
/* columns rows colors chars-per-pixel */
"16 16 11 1 ",
"  c None",
". c #322C21",
"X c #433927",
"o c #4A3F2A",
"O c #69593B",
"+ c #6E5F44",
"@ c #74644A",
"# c #8C6D46",
"$ c #B39F7A",
"% c #D69043",
"& c #CEBC9A",
/* pixels */
"                ",
"                ",
"                ",
"                ",
"                ",
"                ",
"                ",
"                ",
"     OO  OO     ",
"    O%#++#%O    ",
"    O#&&&&#O    ",
"     #.&&.#     ",
"     O&oo&O     ",
"     #@@@@#     ",
"     #&&&&#     ",
"     X$XX$X     "
};
