/* XPM */
static char *out[] = {
/* columns rows colors chars-per-pixel */
"16 16 12 1 ",
"  c None",
". c #1D1C19",
"X c #423621",
"o c #614E2A",
"O c #6B5529",
"+ c #745A2D",
"@ c #675532",
"# c #65583F",
"$ c #926528",
"% c #C3771F",
"& c #A27F58",
"* c #E7CC99",
/* pixels */
"                ",
"                ",
"                ",
"                ",
"    OOo++@OO    ",
"   +%$%%%%$%+   ",
"   +%%%%%%%%+   ",
"   +o%.%%.%o+   ",
"    $&****&$    ",
"   o$&*XX*&$o   ",
"   o%#****#%o   ",
"   o%%####%%o   ",
"   o$%$$$$%$o   ",
"    o%%oo%%o    ",
"    X$$XXo$X    ",
"     XXX XX     "
};
