/* XPM */
static char *out[] = {
/* columns rows colors chars-per-pixel */
"16 16 14 1 ",
"  c None",
". c #403624",
"X c #50442C",
"o c #544B3C",
"O c #685D49",
"+ c #696458",
"@ c #A57F55",
"# c #8A7863",
"$ c #A29170",
"% c #AF9D7B",
"& c #BCAA87",
"* c #C1B190",
"= c #CDBD9E",
"- c #E0E2D1",
/* pixels */
"                ",
"                ",
"                ",
"    OO    OO    ",
"   O==O  O==O   ",
"  O==OO==OO==O  ",
"  O==O====O==O  ",
"   OO=@==@=OO   ",
"    O=X==X=O    ",
"    o=----=o    ",
"    o+-..-+o    ",
"   o$=o%%o=$o   ",
"   o%%*oo*%%o   ",
"    #%#&&#%#    ",
"    o&&##*&o    ",
"    .-*oo*-.    "
};
