/* XPM */
static char *out[] = {
/* columns rows colors chars-per-pixel */
"16 16 16 1 ",
"  c None",
". c #201F1E",
"X c #2D271C",
"o c #3A311D",
"O c #4C3E22",
"+ c #463E2F",
"@ c #735726",
"# c #5D5442",
"$ c #9B661F",
"% c #AC6C1C",
"& c #C07318",
"* c #9F8361",
"= c #B99F6F",
"- c #C4A977",
"; c #E1B164",
": c #D3BA8B",
/* pixels */
"                ",
"                ",
"     $@  @$     ",
"    @&@  @&@    ",
"   @&;%@@%;&@   ",
"   @&&&&&&&&@   ",
"   @&%%--%%&@   ",
"   @%%%--%%%@   ",
"    @%X::X%@    ",
"    #%::::%#    ",
"    #*:++:*#    ",
"    $#-..-#$    ",
"    $-####-$    ",
"    @------@    ",
"     =-##-=     ",
"     O$Oo$O     "
};
