/* XPM */
static char *out[] = {
/* columns rows colors chars-per-pixel */
"16 16 13 1 ",
"  c None",
". c gray13",
"X c #403624",
"o c #544B3C",
"O c #6E5932",
"+ c #685839",
"@ c #73644D",
"# c #AD976E",
"$ c #AF9D7B",
"% c #F7BC60",
"& c #C1B190",
"* c #D8C49E",
"= c #F4EEDE",
/* pixels */
"                ",
"                ",
"                ",
"     @@  @@     ",
"    @==  ==@    ",
"   @=%=@@=%=@   ",
"   @%@====@%@   ",
"   *========*   ",
"   *=**==**=*   ",
"   o==+==+==o   ",
"    @*====*@    ",
"   o=#=..=#=o   ",
"   o==#OO#==o   ",
"   o$======$o   ",
"    o==$$==o    ",
"    X&&oo&&X    "
};
