/* XPM */
static char *out[] = {
/* columns rows colors chars-per-pixel */
"16 16 13 1 ",
"  c None",
". c #322A1B",
"X c #44371C",
"o c #524326",
"O c #5F5136",
"+ c #68542F",
"@ c #645639",
"# c #7B6545",
"$ c #9F6E34",
"% c #A87335",
"& c #B39568",
"* c #BFA370",
"= c #D6964B",
/* pixels */
"                ",
"                ",
"                ",
"                ",
"                ",
"                ",
"     ++  ++     ",
"    +=o++o=+    ",
"    ++%%%%++    ",
"    o$+%%+$o    ",
"    o$.%%.$o    ",
"     #*XX*#     ",
"     &#**#&     ",
"     O&@@&O     ",
"     @%OO%@     ",
"      X  X      "
};
