/* XPM */
static char *out[] = {
/* columns rows colors chars-per-pixel */
"16 16 12 1 ",
"  c None",
". c #312E27",
"X c #554E41",
"o c #5E5544",
"O c #645B4A",
"+ c #686050",
"@ c #6B6354",
"# c #B7A580",
"$ c #D1BF98",
"% c #E4D5B7",
"& c #EBE0C8",
"* c #F2EAD8",
/* pixels */
"      +++       ",
"     +&&&+      ",
"      @$&+      ",
"      OOOO      ",
"    @@&&&&@@    ",
"   +&&%%%&&&+   ",
"  +&$%%%%%%$&@  ",
" O$&$&O&&O&$&$O ",
" O$&#O.&&.O#&$O ",
"  O$X$&..&$X$O  ",
"  OO$o$$$$o$OO  ",
"  X#$#oooo#$#X  ",
"  X#$$$$$$$$#X  ",
"   X$$#$$#$$X   ",
"    X$#XX#$X    ",
"    X*O  O&X    "
};
