/* XPM */
static char *out[] = {
/* columns rows colors chars-per-pixel */
"16 16 14 1 ",
"  c None",
". c #3B301B",
"X c #5B513B",
"o c #604F30",
"O c #6D5934",
"+ c #625338",
"@ c #7A6037",
"# c #946C3A",
"$ c #A3733E",
"% c #B98147",
"& c #A28661",
"* c #A89069",
"= c #BFA77A",
"- c #D8C6A4",
/* pixels */
"                ",
"                ",
"    OO    OO    ",
"   O--O  O--O   ",
"   O-%$XX$%-O   ",
"   O-@----@-O   ",
"   o@=----=@o   ",
"   o#$$--$$#o   ",
"    +-.--.-+    ",
"    +--..--+    ",
"   +=X-**-X=+   ",
"   +==XXXX==+   ",
"   +========+   ",
"   X&======&X   ",
"    X=&XX&=X    ",
"    .-.  .-.    "
};
