/* XPM */
static char *out[] = {
/* columns rows colors chars-per-pixel */
"16 16 17 1 ",
"  c None",
". c #3D3524",
"X c #463C29",
"o c #6D5832",
"O c #564F41",
"+ c #5E5748",
"@ c #665F4F",
"# c #B0793C",
"$ c #B67D41",
"% c #E2943E",
"& c #B6A077",
"* c #CCB792",
"= c #D3C09E",
"- c #DDCCAD",
"; c #E1D4B8",
": c #E4DCC1",
"> c #EBE6D8",
/* pixels */
"                ",
"    oo    oo    ",
"   o%#oooo#%o   ",
"  o%##-::-##%o  ",
"  o#o::::::o#o  ",
"  o@:>.::.>:@o  ",
"   @::::::::@   ",
"    @::..::@    ",
"    O::::::O    ",
"   +*O++++O*+   ",
"   +***$****+   ",
"   +::****::+   ",
"   +=;;;;;;=+   ",
"   O&;;&&;;&O   ",
"    O&;++;&O    ",
"     X;X.;X     "
};
