/* XPM */
static char *out[] = {
/* columns rows colors chars-per-pixel */
"16 16 11 1 ",
"  c None",
". c #24201A",
"X c #3F331D",
"o c #50432A",
"O c #544935",
"+ c #5A4F3B",
"@ c #635740",
"# c #987C5C",
"$ c #B69868",
"% c #B7A98A",
"& c #D4BE95",
/* pixels */
"                ",
"                ",
"     @    @     ",
"    @&@  @&@    ",
"   @&$$@@$$&@   ",
"  @$$#&&&&#$$@  ",
" @$$@&#&&#&@$$@ ",
" @$$@&.&&.&@$$@ ",
" @$$+&&&&&&+$$@ ",
"  @@+&%..%&+@@  ",
"    +%%%%%%+    ",
"   O&O%..%O&O   ",
"   O&$OOOO$&O   ",
"   O&$$$$$$&O   ",
"   o@$$$$$$@o   ",
"    X&XooX&X    "
};
