/* XPM */
static char *out[] = {
/* columns rows colors chars-per-pixel */
"16 16 15 1 ",
"  c None",
". c #373021",
"X c #33322F",
"o c #4C4028",
"O c #7B6138",
"+ c #6C614D",
"@ c #B2752E",
"# c #82705A",
"$ c #968165",
"% c #9C8A6B",
"& c #DD9D4D",
"* c #F7B95C",
"= c #DAC7A3",
"- c #E2D0AB",
"; c #F2EAD7",
/* pixels */
"                ",
"                ",
"                ",
"                ",
"     OO  OO     ",
"    O*&OO&*O    ",
"    O&@;;@&O    ",
"    O@@;;@@O    ",
"    O@.;;.@O    ",
"    O=;XX;=O    ",
"     +;%%;+     ",
"    O=++++=O    ",
"    @;$%%%;@    ",
"    +=;;;;-+    ",
"     #-##-#     ",
"     o@oo@o     "
};
