/* XPM */
static char *out[] = {
/* columns rows colors chars-per-pixel */
"16 16 17 1 ",
"  c None",
". c #121315",
"X c #372E1B",
"o c #383021",
"O c #5C513B",
"+ c #615032",
"@ c #615744",
"# c #876330",
"$ c #B7772E",
"% c #816F59",
"& c #CA9B5C",
"* c #F4BA60",
"= c #C4B28D",
"- c #CDBA96",
"; c #E2D4B5",
": c #E8E6CE",
"> c #ECE8D4",
/* pixels */
"                ",
"                ",
"                ",
"      @  @      ",
"     +$++$+     ",
"    +*$++$*+    ",
"    +&$$$$&+    ",
"   +$$$::$$$+   ",
"   +$$=::=$$+   ",
"   #$$X::X$$#   ",
"   #$=::::=$#   ",
"    #%>..>%#    ",
"   O>>%%%%>>O   ",
"   O->>>>>>-O   ",
"    %>>%%>>%    ",
"    o;;oo;;o    "
};
