/* XPM */
static char *out[] = {
/* columns rows colors chars-per-pixel */
"16 16 11 1 ",
"  c None",
". c #2B2825",
"X c #574727",
"o c #634D23",
"O c #715C38",
"+ c #666158",
"@ c #766A5B",
"# c #9F723D",
"$ c #C3803C",
"% c #CCBDA0",
"& c #EBEADF",
/* pixels */
"        @&@     ",
"       @&%+     ",
"    OO @&@OO    ",
"   O$$O@@O$$O   ",
"  O$##&&&&##$O  ",
" O$$#&&&&&&#$$O ",
" O$#%&&&&&&%#$O ",
" OO@%&.&&.&%@OO ",
"   @&&&&&&&&@   ",
"   @%&&..&&%@   ",
"   %@%&&&&%@%   ",
"   %&@@@@@@&%   ",
"   @&&&&&&&&@   ",
"    %&&@@&&%    ",
"    @&@  @&@    ",
"    X$@  o$X    "
};
