/* XPM */
static char *out[] = {
/* columns rows colors chars-per-pixel */
"16 16 12 1 ",
"  c None",
". c #1B1B1B",
"X c #383021",
"o c #554A33",
"O c #5C513B",
"+ c #7E6E5A",
"@ c #816F59",
"# c #87725C",
"$ c #F2C36D",
"% c #CDBA96",
"& c #E7D5B1",
"* c #F4F1EB",
/* pixels */
"                ",
"                ",
"     +++        ",
"    +***+       ",
"    +#++++++    ",
"   +***++***+   ",
"   +*#****#*+   ",
"   +#******#+   ",
"   +*&&**&&*+   ",
"   +**o**o**+   ",
"   O&&****&&O   ",
"   O+&*..*&+O   ",
"   O++$$$$++O   ",
"   O%*++++*&O   ",
"    @**@@**@    ",
"    X&&XX&&X    "
};
