/* XPM */
static char *out[] = {
/* columns rows colors chars-per-pixel */
"16 16 11 1 ",
"  c None",
". c #262118",
"X c #453923",
"o c #65583C",
"O c #5A5141",
"+ c #816132",
"@ c #8E7254",
"# c #B07B42",
"$ c #B79765",
"% c #BAA16F",
"& c #CCB996",
/* pixels */
"                ",
"                ",
"     oo  oo     ",
"    o$o  o$o    ",
"   o$#oOOo#$o   ",
"   o$#$&&$#$o   ",
"   o$$$&&$$$o   ",
"   o$@@&&@@$o   ",
"   o$&.&&.&$o   ",
"   o$&&&&&&$o   ",
"    O&$++$&O    ",
"   O%O$$$$O%O   ",
"   O%%OOOO%%O   ",
"   O%%%%%%%%O   ",
"    @%%OO%%@    ",
"    X%X  X%X    "
};
