/* XPM */
static char *out[] = {
/* columns rows colors chars-per-pixel */
"16 16 8 1 ",
"  c None",
". c black",
"X c #494030",
"o c #494336",
"O c #6A614C",
"+ c #716652",
"@ c #DED1B7",
"# c #F2EEE1",
/* pixels */
"                ",
"    OO    OO    ",
"   +##X  X##+   ",
"   +#@#XX#@#+   ",
"   O########O   ",
"   O##@##@##O   ",
"  X@#@.##.@#@X  ",
"  X@@######@@X  ",
"   X@@####@@X   ",
"   Oo@#..#@XO   ",
"   O#O#@@#O#O   ",
"   X##oooo##X   ",
"   X@##@@##@X   ",
"   X@@++++@@X   ",
"    +@@XX@@+    ",
"    X##XX##X    "
};
