/* XPM */
static char *out[] = {
/* columns rows colors chars-per-pixel */
"16 16 18 1 ",
"  c None",
". c #40351F",
"X c #4A3818",
"o c #503F1C",
"O c #60502F",
"+ c #6C5730",
"@ c #7A6648",
"# c #826232",
"$ c #A87231",
"% c #C67E2F",
"& c #D0812F",
"* c #E48C31",
"= c #A28059",
"- c #BF9D68",
"; c #C9A66C",
": c #D1B278",
"> c #E7C078",
", c #F4CD84",
/* pixels */
"   +++    +++   ",
"  +***++++***+  ",
" +**#;,,,,;#**+ ",
"O%&#;;,,,,;;#&%O",
"O%O;;%$::$%;;O%O",
"O#O$$$$::$$$$O#O",
"OO O$..>>..$O OO",
"   O$,,,,,,$O   ",
"  O-O,,oo,,O-O  ",
"  O-O::XX::O-O  ",
"  O--OOOOOO--O  ",
"  O=--:,,:--=O  ",
"   O--:,,:--O   ",
"   O--@OO@--O   ",
"    O=O  O=O    ",
"    O$O  O$O    "
};
