/* XPM */
static char *out[] = {
/* columns rows colors chars-per-pixel */
"16 16 16 1 ",
"  c None",
". c #312B20",
"X c #403622",
"o c #4C422D",
"O c #5A4928",
"+ c #624E26",
"@ c #655129",
"# c #6B542A",
"$ c #B66F1C",
"% c #916223",
"& c #996622",
"* c #C1751E",
"= c #C0AD88",
"- c #CCB996",
"; c #D7C7A7",
": c #F2ECD8",
/* pixels */
"        OO      ",
"       O*O      ",
"       O%O      ",
"    @%%%%%%@    ",
"   @********@   ",
"  @**********@  ",
" O%*O*:**:*O*%O ",
" O%*O@@**@@O*%O ",
" O%*O&.::.&O*%O ",
"  OO$$::::$$OO  ",
"   %O;:++:;O%   ",
"   O=O----O=O   ",
"   O==OXXO-=O   ",
"    o======o    ",
"    o::oo::o    ",
"     ##  ##     "
};
