/* XPM */
static char *out[] = {
/* columns rows colors chars-per-pixel */
"16 16 19 1 ",
"  c None",
". c #493D27",
"X c #584622",
"o c #5E5238",
"O c #715E3A",
"+ c #76664D",
"@ c #856539",
"# c #A87438",
"$ c #887156",
"% c #92785D",
"& c #CC863F",
"* c #A28661",
"= c #E2AC5D",
"- c #C4A977",
"; c #F7C46D",
": c #D6BC8B",
"> c #DAC295",
", c #F4E7CE",
"< c #F5F2F5",
/* pixels */
"                ",
"                ",
"     O     O    ",
"    O&O   O&O   ",
"    @;&O-O&;@   ",
"    @=#,,,#=@   ",
"    @#&&,&&#@   ",
"    O#.#,#.#O   ",
"    O##<<<##O   ",
"    o+><X<>+o   ",
"    #>+<<<+>#   ",
"    +:<%*%<:+   ",
"    $#<<<<<#$   ",
"     +>>+>>+    ",
"     o#O O#o    ",
"      .. ..     "
};
