/* XPM */
static char *out[] = {
/* columns rows colors chars-per-pixel */
"16 16 13 1 ",
"  c None",
". c #25231C",
"X c #372E1D",
"o c #423621",
"O c #504531",
"+ c #564B35",
"@ c #5C513D",
"# c #5A5242",
"$ c #655942",
"% c #9F6823",
"& c #B39162",
"* c #C7A66C",
"= c #E2C385",
/* pixels */
"                ",
"                ",
"     @@   @@    ",
"   @@==@@@==@#  ",
"  @==$*===*$==# ",
"  +**@=====@**O ",
"  +*$**===**$*O ",
"  @*o..*=*..o*O ",
"  O$+*.*=*.*+$O ",
"    +*=====*+   ",
"   @*O=ooo=O*@  ",
"   @*O*&&&*O*@  ",
"   O&&OOOOO&&O  ",
"    O&&&&&&&O   ",
"    O&&+OO&&O   ",
"     X%X X%X    "
};
