/* XPM */
static char *out[] = {
/* columns rows colors chars-per-pixel */
"16 16 14 1 ",
"  c None",
". c #352E1F",
"X c #554527",
"o c #5E4D2B",
"O c #534B3C",
"+ c #7B5C2A",
"@ c #655C49",
"# c #7A6A53",
"$ c #B07227",
"% c #C47E35",
"& c #E1933D",
"* c #C0AA7E",
"= c #C7B187",
"- c #E5E2CD",
/* pixels */
"                ",
"                ",
"                ",
"                ",
"     ++  ++     ",
"    +&$##$&+    ",
"    +%=--=%+    ",
"    +$$--$$+    ",
"    #$.--.$#    ",
"    #=----=#    ",
"    @@-..-@@    ",
"    #=@@@@=#    ",
"    #======#    ",
"    @*====*@    ",
"     **OO**     ",
"     oX  oX     "
};
