/* XPM */
static char *out[] = {
/* columns rows colors chars-per-pixel */
"16 16 12 1 ",
"  c None",
". c #1E1C19",
"X c #3E3422",
"o c #5B4F38",
"O c #62502C",
"+ c #6E572E",
"@ c #65583F",
"# c #8B6632",
"$ c #A68A63",
"% c #ECAE56",
"& c #F2BA63",
"* c #CAB48A",
/* pixels */
"      @@        ",
"      @$@       ",
"      @**@      ",
"     OO**OO     ",
"    O&$OO$&O    ",
"    O%*$$*%O    ",
"    O$****$O    ",
"   O$##**##$O   ",
"   O$$.**.$$O   ",
"   O$******$O   ",
"   O$******$O   ",
"   O$o*..*o$O   ",
"    o*o$$o*o    ",
"    +$$oo$$+    ",
"    X**XX**X    ",
"     XX  XX     "
};
