/* XPM */
static char *out[] = {
/* columns rows colors chars-per-pixel */
"16 16 15 1 ",
"  c None",
". c #201F1E",
"X c #3C311C",
"o c #3A3731",
"O c #493E28",
"+ c #423F37",
"@ c #4A473F",
"# c #5D4E30",
"$ c #656259",
"% c #807668",
"& c #8B826F",
"* c #AFA591",
"= c #D4C7AD",
"- c #E7D5B1",
"; c #E6EAE1",
/* pixels */
"       +        ",
"      +*+       ",
"      +$+       ",
"      +$+       ",
"    ++$**$++    ",
"   +**++++**+   ",
"  +**+$**$+**+  ",
"  +++$****$+++  ",
"    +@#**#@+    ",
"   +$*.**.*$+   ",
"   +$*;**;*$+   ",
"   +$@;..;@$+   ",
"   +$%=XX=+$+   ",
"   +$&ooo+&$+   ",
"    O&%oo-&O    ",
"     +ooooo     "
};
