/* XPM */
static char *out[] = {
/* columns rows colors chars-per-pixel */
"16 16 13 1 ",
"  c None",
". c #352E20",
"X c #5F491D",
"o c #62502D",
"O c #69542B",
"+ c #544E41",
"@ c #655841",
"# c #6A5F49",
"$ c #8F6327",
"% c #C18B4F",
"& c #CD9B59",
"* c #D6BC8A",
"= c #E0CA9F",
/* pixels */
"       @=@      ",
"       @=@      ",
"      @==@      ",
"      @==@      ",
"     ######     ",
"    #======#    ",
"   o=OO==OO=o   ",
"   o$O====O$o   ",
"   o$======$o   ",
"   oo=.==.=oo   ",
"   @*%====%*@   ",
"   @*@=..=@*@   ",
"    @*@&&@*@    ",
"    @**@@**@    ",
"     =*++*=     ",
"     XX  XX     "
};
