/* XPM */
static char *out[] = {
/* columns rows colors chars-per-pixel */
"16 16 11 1 ",
"  c None",
". c #302B20",
"X c #413825",
"o c #4D412B",
"O c #574B32",
"+ c #615339",
"@ c #66573C",
"# c #B08A5B",
"$ c #C49C62",
"% c #CDA464",
"& c #D7AC67",
/* pixels */
"                ",
"    @@    @@    ",
"   @&&@@@@&&@   ",
"  @&&$&&&&$&&@  ",
" @&&@&&&&&&+&&@ ",
" @&+$$$&&$$$+&@ ",
" @$+%%.&&.%%+$@ ",
"  @+$%%$$%%$+@  ",
"    O%%..%%O    ",
"   O%O####O%O   ",
"   O%%OOOO%%O   ",
"   O%%%%%%%%O   ",
"   X#%%%%%%#X   ",
"    +%#oo#%+    ",
"    X%+  +%X    ",
"     XX  XX     "
};
