/* XPM */
static char *out[] = {
/* columns rows colors chars-per-pixel */
"16 16 11 1 ",
"  c None",
". c #3D3525",
"X c #403A2C",
"o c #5B4E36",
"O c #66583B",
"+ c #7D6239",
"@ c #8E6939",
"# c #A3743D",
"$ c #B97F43",
"% c #B79663",
"& c #D8C49E",
/* pixels */
"                ",
"                ",
"     O    O     ",
"    O&O  O&O    ",
"    &$#OO#$&    ",
"    &$#&&#$&    ",
"    O##&&##O    ",
"    o#.&&.#o    ",
"    o+&..&+o    ",
"    Oo&XX&oO    ",
"    @&oooo&@    ",
"    #&%%%%&#    ",
"    o$&&&&$o    ",
"    o$&oo&$o    ",
"    o$$oo$$o    ",
"     ..  ..     "
};
