/* XPM */
static char *out[] = {
/* columns rows colors chars-per-pixel */
"16 16 16 1 ",
"  c None",
". c #03060D",
"X c #40392E",
"o c #4C4435",
"O c #50493B",
"+ c #514A3D",
"@ c #595243",
"# c #5B5548",
"$ c #615949",
"% c #816F5C",
"& c #A18B68",
"* c #A8926B",
"= c #B39D71",
"- c #CDBB97",
"; c #D8C9AD",
": c #E7DFC8",
/* pixels */
"                ",
"     #$         ",
"    $--$        ",
"    @@%-$ @@    ",
"   #--O--@--@   ",
"  @--&&++&&--#  ",
" @---;----;---@ ",
" #:--&----*--:@ ",
" @::+&&--&&+::@ ",
"  OO&-.--.-&OO  ",
"   X&--..--&X   ",
"   @+&-::-&+@   ",
"   @-O+--OO-@   ",
"   o*--OO--*O   ",
"    X**&&**X    ",
"     X=XX=X     "
};
