/* XPM */
static char *out[] = {
/* columns rows colors chars-per-pixel */
"16 16 17 1 ",
"  c None",
". c #40331C",
"X c #423721",
"o c #514224",
"O c #5E4C29",
"+ c #4E4531",
"@ c #5E533C",
"# c #68593B",
"$ c #6E5D3D",
"% c #846843",
"& c #9E764B",
"* c #A87C4F",
"= c #B69867",
"- c #C7A469",
"; c #CDB079",
": c #E5C891",
"> c #E4D1A5",
/* pixels */
"                ",
"                ",
"       ##       ",
"      #::#      ",
"     @@%;@@     ",
"    @======@    ",
"   @*##==##*@   ",
"   @$:-%%-:$@   ",
"   $:-:>>:-:$   ",
"   $-%=>>=%-#   ",
"   ##=X>>X=##   ",
"    &=>>>>=&    ",
"    &+>oo>+&    ",
"    O+>>>>+O    ",
"    O=++++=O    ",
"     oo  .oX    "
};
