/* XPM */
static char *out[] = {
/* columns rows colors chars-per-pixel */
"16 16 13 1 ",
"  c None",
". c #352F23",
"X c #3F3829",
"o c #5E523B",
"O c #63563E",
"+ c #715F3F",
"@ c #7D6440",
"# c #997449",
"$ c #B99968",
"% c #C08A4D",
"& c #D19850",
"* c #E49F4B",
"= c #C1A46D",
/* pixels */
"                ",
"                ",
"    +      +    ",
"   +&+    +&+   ",
"   @*%++++%*+   ",
"   +*+&&&&+*+   ",
"   +%&&&&&&%+   ",
"    +&.&&.&+    ",
"    +&====&+    ",
"    O$$..=$O    ",
"   +%oo==oo%+   ",
"   +&&&oo&&&+   ",
"   @%&&%%&&%@   ",
"   O#&%oo%&#o   ",
"    o&o  o&o    ",
"    OXO  OXO    "
};
