/* XPM */
static char *out[] = {
/* columns rows colors chars-per-pixel */
"16 16 18 1 ",
"  c None",
". c #3D3524",
"X c #4D4129",
"o c #665534",
"O c #715F3F",
"+ c #71654F",
"@ c #82602E",
"# c #A27031",
"$ c #A67031",
"% c #BC7C36",
"& c #8A755F",
"* c #D08334",
"= c #F79B35",
"- c #EEBA66",
"; c #DBC9A3",
": c #F5DBA9",
"> c #F5DFB5",
", c #F5E9CF",
/* pixels */
"     OO  OO     ",
"    O=*OO*=O    ",
"   O=*=,,=*=O   ",
"  O=*==,,==*=O  ",
" O====*,,*====O ",
" O====.,,.==-=O ",
" O=O==,,,,==O=O ",
"  O+=,,##,,=+$  ",
"    O,,,,,,O    ",
"   O=&;;;;&=O   ",
"   O>*o&&o*>O   ",
"   %=,,,,,,=%   ",
"   %==:,,:==%   ",
"   o===&&===o   ",
"   X,,,XX,,,X   ",
"    o@X  X@o    "
};
