/* XPM */
static char *out[] = {
/* columns rows colors chars-per-pixel */
"16 16 19 1 ",
"  c None",
". c #453B28",
"X c #4B412E",
"o c #5E4F32",
"O c #7E6033",
"+ c #504A41",
"@ c #685D4A",
"# c #8C6734",
"$ c #85715C",
"% c #B67D41",
"& c #927C61",
"* c #C78138",
"= c #E08C35",
"- c #AB9168",
"; c #F2B359",
": c #F7C972",
"> c #D6D1C7",
", c #ECDEC3",
"< c #F1EBD8",
/* pixels */
"                ",
"                ",
"     #     #    ",
"    #=#   #=#   ",
"    #:=#&#=:#   ",
"    #;*=<=*;#   ",
"    #*=<<<=*#   ",
"     #.=<=.#    ",
"     #=<<<=#    ",
"     @$>+>$@    ",
"    O*-$%$-*O   ",
"    #=<<<<<=#   ",
"    #*,<<<,*#   ",
"     #,&@&,#    ",
"     o,o o,o    ",
"      X   X     "
};
