/* XPM */
static char *out[] = {
/* columns rows colors chars-per-pixel */
"16 16 13 1 ",
"  c None",
". c #201F1E",
"X c #342D1F",
"o c #403D35",
"O c #564421",
"+ c #53504A",
"@ c #595751",
"# c #615E58",
"$ c #80786C",
"% c #BF8D53",
"& c #B7915E",
"* c #E2A655",
"= c #E8E7DB",
/* pixels */
"                ",
"                ",
"       o@       ",
"      o@o       ",
"    oo#==#oo    ",
"   o#*o##o*#o   ",
"   o#%====%#o   ",
"   +o#$==$#o+   ",
"   o+#.==.#+o   ",
"   o#o====o#o   ",
"   o#o====o#o   ",
"   o#o=..=o#o   ",
"   o##oooo##o   ",
"    o##==##o    ",
"    X&&XX&&X    ",
"     OO  OO     "
};
