/* XPM */
static char *out[] = {
/* columns rows colors chars-per-pixel */
"16 16 10 1 ",
"  c None",
". c #121315",
"X c #383021",
"o c #554527",
"O c #5C513B",
"+ c #816F59",
"@ c #F4B85D",
"# c #CDBA96",
"$ c #E2D4B5",
"% c #ECE8D4",
/* pixels */
"                ",
"                ",
"                ",
"                ",
"     +    +     ",
"    +%+  +%+    ",
"   +%@%++%@%+   ",
"   +%%%%%%%%+   ",
"   +##$%%$##+   ",
"    +#o%%o#+    ",
"   O##%%%%##O   ",
"   O%+%..%+%O   ",
"   O%%++++%%O   ",
"   O#%%%%%%#O   ",
"    +%%++%%+    ",
"    X$$XX$$X    "
};
