/* XPM */
static char * enemy_xpm[] = {
"16 16 10 1",
" 	c #FF00FF",
".	c #333941",
"+	c #DF3E23",
"@	c #20D6C7",
"#	c #FFFFFF",
"$	c #322B28",
"%	c #F9A31B",
"&	c #B4202A",
"*	c #FA6A0A",
"=	c #249FDE",
"     ......     ",
"     ..++++.    ",
"     .+......   ",
"    ....@@@.    ",
"    ..@#$#$.    ",
"     ..@#%%%.   ",
"    ..&.....    ",
"  ..*+++++&..   ",
" .*+&...+..@@.  ",
" .+&.@.&+.@.@.  ",
"  ..@#.&+.###@. ",
"   .@#.&&.##.@. ",
"   .=##..####=. ",
"    .@#####.@.  ",
"    .==####==.  ",
"     ..====..   "};
