/* XPM */
static char *out[] = {
/* columns rows colors chars-per-pixel */
"12 15 7 1 ",
"  c None",
". c black",
"X c #DF0000",
"o c #CBC200",
"O c #FFF300",
"+ c #868686",
"@ c white",
/* pixels */
" .          ",
".           ",
"            ",
"..          ",
"            ",
"            ",
"            ",
"         X  ",
"     ...XX  ",
"    .@@@@@. ",
"    .@@@.@O.",
"    .@@++@. ",
"  ...@+++@. ",
"   .@@@@@@.o",
"    .......o"
};
