/* XPM */
static char * cat_xpm[] = {
"16 16 15 1",
" 	c None",
".	c #1D1D1C",
"+	c #FFFFFF",
"@	c #FFD1AC",
"#	c #FEA464",
"$	c #F3BFAD",
"%	c #6AC81F",
"&	c #F6A371",
"*	c #DFB2C6",
"=	c #6E6E6E",
"-	c #C4C4C5",
";	c #DD8944",
">	c #F26E26",
",	c #C44C26",
"'	c #7E0E13",
"                ",
"                ",
"                ",
"                ",
"   .      .  .  ",
"  .+.    .+..+. ",
" .@.     .#@@#. ",
".@.     .@$%$%$.",
".&@.....#@#+*+#.",
" .$&@&@&@$+===-.",
".@#$#$#$$#$+++. ",
".$#$;&;&&$;>>.  ",
".#$;,>,>,$&&$.  ",
".$;',....>#>#.  ",
".$',.    .&,&.  ",
" .+.-.    .+'-. "};
