/* XPM */
static char * demon_2_xpm[] = {
"16 16 16 1",
" 	c None",
".	c #1D1D1C",
"+	c #897A71",
"@	c #F26E26",
"#	c #4D0A1A",
"$	c #625353",
"%	c #E84444",
"&	c #444443",
"*	c #C1F567",
"=	c #D31212",
"-	c #6D1D51",
";	c #6AC81F",
">	c #AC162D",
",	c #4D1446",
"'	c #3D3F4B",
")	c #67656D",
"                ",
"     .      .   ",
"   . ..    ..   ",
"   . .+.  .+.   ",
"  .@. #$..$#.   ",
"  .%@.#&*@*#%.  ",
"  .=-@#&=%=#%.  ",
"  .=--#&;*;#=.  ",
"  .=-#@#>>#,=.  ",
"  .=#%%@--%#=.  ",
"  .=#=>%@@%=#.  ",
"  .=.=#>%%>.=.  ",
"   . .%#>>. .   ",
"      .=,=.     ",
"      .=#=.     ",
"      .')').    "};
