/* XPM */
static char *out[] = {
/* columns rows colors chars-per-pixel */
"16 16 8 1 ",
"  c None",
". c black",
"X c #8F563B",
"o c #53A305",
"O c #CBC200",
"+ c #FFF300",
"@ c #868686",
"# c white",
/* pixels */
"                ",
"                ",
"   .........    ",
"  .XXXXX#ooo.   ",
"  .XXXXX#ooo.   ",
" O.XX@@@#o.o+.  ",
"  .XXX@@#ooo.   ",
" O.XXXXX#ooo.   ",
"   .........    ",
"                ",
"                ",
"                ",
"                ",
"                ",
"                ",
"                "
};
