/* XPM */
static char * damsel_xpm[] = {
"16 16 14 1",
" 	c #FF0000",
".	c #1A1C26",
"+	c #F6DD7A",
"@	c #A19477",
"#	c #DAB580",
"$	c #EDD1D6",
"%	c #AB684C",
"&	c #DFB2C6",
"*	c #9EE4EF",
"=	c #D1FBF0",
"-	c #C58FAA",
";	c #71B5DB",
">	c #113F82",
",	c #3466B0",
"                ",
"      ...       ",
"     .+@#.      ",
"    .+##@#.     ",
"    .##@$@#.    ",
"   .+#@%$%@.    ",
"   .#@&&&&@.    ",
"   .#*=--=@.    ",
"   .*;;==;*.    ",
"  .*;>;*;>;*.   ",
" .&;>,;*;,>;&.  ",
"  ..>>,>,>...   ",
"    .,;*;,.     ",
"    .,;*;,.     ",
"   .,;;*;;,.    ",
"   .;;;*;;;.    "};
